/* XPM */
static const char * folder_xpm[] = {
"13 16 3 1",
" 	c None",
".	c #7F7F7F",
"+	c #000000",
"             ",
"             ",
"             ",
"         ..  ",
"  ......++.. ",
" ++++++++++. ",
" ++++++++++. ",
" ++++++++++. ",
" ++++++++++. ",
" ++++++++++. ",
" ++++++++++. ",
" ++++++++++  ",
"             ",
"             ",
"             ",
"             "};
