/* XPM */
static const char * forward_xpm[] = {
"13 16 3 1",
" 	c None",
".	c #BBBBBB",
"+	c #000000",
"             ",
"             ",
" .+   .+     ",
" .+   .+     ",
" .++  .++    ",
" .++  .++    ",
" .+++ .+++   ",
" .++++.++++  ",
" .++++.++++  ",
" .+++ .+++   ",
" .++  .++    ",
" .++  .++    ",
" .+   .+     ",
" .+   .+     ",
"             ",
"             "};
