/* XPM */
static const char *gear_xpm[] = {
/* columns rows colors chars-per-pixel */
"16 16 53 1",
", c Black",
". c #2D2D2D",
"o c #F7F7F7",
"b c #4B4B4B",
"i c #5A5A5A",
"2 c #262626",
"  c #FFFFFF",
"= c #8F8F8F",
"O c #010101",
"g c #3D3D3D",
"k c #888888",
"y c #090909",
"x c #181818",
"> c #272727",
"1 c #F1F1F1",
"e c #363636",
"w c #9F9F9F",
"* c #020202",
"0 c #202020",
"9 c #6B6B6B",
"+ c #828282",
"z c #5D5D5D",
"p c #999999",
"8 c #F3F3F3",
"3 c #565656",
"u c #040404",
": c #222222",
"; c #404040",
"7 c #9A9A9A",
"- c #B8B8B8",
"t c #484848",
"c c #666666",
"r c #848484",
"a c #232323",
"4 c #EDEDED",
"& c #323232",
"v c #FCFCFC",
"h c #8C8C8C",
"5 c #C8C8C8",
"@ c #F5F5F5",
"< c #767676",
"d c #A3A3A3",
"X c #B2B2B2",
"% c #C1C1C1",
"q c #060606",
"# c #BABABA",
"s c #C9C9C9",
"6 c #0E0E0E",
"f c #E7E7E7",
"j c #3B3B3B",
"n c #959595",
"$ c #A4A4A4",
"l c #C2C2C2",
/* pixels */
"                ",
"       .X       ",
"   o   O+   @   ",
"  #O$%&O*=-;:   ",
"   >,,O,O,,,-   ",
"   <,,,O,OO*1   ",
"   2,,3456O,7   ",
"890,,q   w,O,er ",
"1tyO,u   w,OOip ",
"   a,,34s6O,d   ",
"   +,,,,,OO,f   ",
"   g,,,,O,,,w   ",
"  5Oh-jO,klzx   ",
"   4   qc   v   ",
"       bn       ",
"                "
};
