/* XPM */
static const char * null_xpm[] = {
"12 16 32 1",
" 	c None",
".	c #474747",
"+	c #454545",
"@	c #B4B4B4",
"#	c #1B1B1B",
"$	c #000000",
"%	c #0B0B0B",
"&	c #505050",
"*	c #020202",
"=	c #393939",
"-	c #343434",
";	c #747474",
">	c #9E9E9E",
",	c #010101",
"'	c #030303",
")	c #0D0D0D",
"!	c #595959",
"~	c #313131",
"{	c #2F2F2F",
"]	c #111111",
"^	c #050505",
"/	c #565656",
"(	c #040404",
"_	c #0F0F0F",
":	c #141414",
"<	c #222222",
"[	c #2B2B2B",
"}	c #151515",
"|	c #353535",
"1	c #3A3A3A",
"2	c #101010",
"3	c #292929",
"            ",
"            ",
"   .+      @",
"   #$%   &*$",
"   =$$= -$$;",
"   >$,')$$! ",
"    $$$$$~  ",
"    {$$,]   ",
"    $$$$    ",
"   ^$,$$/   ",
"  $$$($,_   ",
" ^$,: <$$[  ",
"-$$}   |$1  ",
" 23         ",
"            ",
"            "};
