/* XPM */
static const char * play_xpm[] = {
"10 16 3 1",
" 	c None",
".	c #000000",
"+	c #DDDDDD",
"          ",
"          ",
"  .       ",
"  ..      ",
"  ...     ",
"  ....    ",
"  .....   ",
"  ......  ",
"  ......  ",
"  .....+  ",
"  ....+   ",
"  ...+    ",
"  ..+     ",
"  .+      ",
"          ",
"          "};
