/* XPM */
static const char * question_xpm[] = {
"10 16 7 1",
" 	c None",
".	c #171717",
"+	c #0E0E0E",
"@	c #0C0C0C",
"#	c #090909",
"$	c #555555",
"%	c #000000",
"          ",
"          ",
"          ",
"   .+@.   ",
"  ..  ..  ",
"  .    #  ",
"       .  ",
"      .$  ",
"     .$   ",
"    .$    ",
"    .     ",
"          ",
"    %     ",
"          ",
"          ",
"          "};
