/* XPM */
static const char * remove_xpm[] = {
"12 16 3 1",
" 	c None",
".	c #000000",
"+	c #DDDDDD",
"            ",
"            ",
"            ",
"            ",
"            ",
"            ",
"            ",
"  ........+ ",
"  ........+ ",
"  ........+ ",
"            ",
"            ",
"            ",
"            ",
"            ",
"            "};
